<?xml version="1.0" encoding="UTF-8"?>
<svg version="1.1" xmlns="http://www.w3.org/2000/svg" width="225" height="225">
<path d="M0 0 C4.03288366 1.31844273 5.85730417 3.35069411 8.63671875 6.46875 C11.70708946 9.50194915 15.10627356 9.17124618 19.1875 9.3125 C24.85903729 9.79882747 24.85903729 9.79882747 27.9375 11.875 C29.29467979 15.17100805 29.39589662 17.2285901 29.5 20.75 C29.77001903 27.20663148 32.16696432 30.21418379 36.6328125 34.7109375 C38.25 37.0625 38.25 37.0625 38.4296875 39.9140625 C36.4401988 45.22375751 32.93348469 48.68320111 27.89501953 51.27294922 C25.39146492 52.28489888 22.88058809 53.16610372 20.3125 54 C19.43787109 54.30228516 18.56324219 54.60457031 17.66210938 54.91601562 C15.53091665 55.64970492 13.39125889 56.3587296 11.25 57.0625 C17.19 55.7425 23.13 54.4225 29.25 53.0625 C29.25 53.7225 29.25 54.3825 29.25 55.0625 C25.62 56.7125 21.99 58.3625 18.25 60.0625 C20.82161458 60.2578125 23.39322917 60.453125 25.96484375 60.6484375 C26.71894531 60.78507812 27.47304687 60.92171875 28.25 61.0625 C28.58 61.7225 28.91 62.3825 29.25 63.0625 C26.84016393 67.76741803 26.84016393 67.76741803 24.25 69.0625 C22.25006261 69.08866197 20.25004036 69.10849023 18.25 69.125 C11.49018474 69.5358175 8.26901701 71.71816638 3.56640625 76.4453125 C1.25 78.0625 1.25 78.0625 -1.84375 78.0234375 C-5.03091249 76.96961764 -5.86845367 76.20510336 -7.8125 73.5625 C-10.21022302 70.91803144 -11.33651306 70.13354411 -14.91015625 69.51953125 C-17.15971891 69.4256938 -19.41281184 69.39102322 -21.6640625 69.42578125 C-25.51557189 68.97237571 -27.10959376 67.86486424 -29.75 65.0625 C-29.75 63.7425 -29.75 62.4225 -29.75 61.0625 C-24.305 60.5675 -24.305 60.5675 -18.75 60.0625 C-22.38 58.0825 -26.01 56.1025 -29.75 54.0625 C-26.58454798 52.47977399 -24.00581122 53.73163381 -20.625 54.5 C-19.34367187 54.78746094 -18.06234375 55.07492188 -16.7421875 55.37109375 C-15.75476563 55.59925781 -14.76734375 55.82742187 -13.75 56.0625 C-15.57724609 55.53462891 -15.57724609 55.53462891 -17.44140625 54.99609375 C-34.68090495 49.79154823 -34.68090495 49.79154823 -38.75 43.0625 C-39.875 40.4375 -39.875 40.4375 -39.75 38.0625 C-38.59895826 35.48958316 -37.27785354 33.57115887 -35.24609375 31.61328125 C-31.41843761 27.80407164 -30.39038748 25.32871279 -30.125 19.875 C-30.13273437 18.87082031 -30.14046875 17.86664063 -30.1484375 16.83203125 C-29.75 14.0625 -29.75 14.0625 -28.0859375 11.71875 C-25.16825642 9.65002629 -23.54268642 9.69034336 -20 9.75 C-13.1606804 9.43266893 -10.32371667 6.83459474 -5.75 2.0625 C-2.75 0.0625 -2.75 0.0625 0 0 Z M-3.75 20.0625 C-3.42 20.7225 -3.09 21.3825 -2.75 22.0625 C-2.42 21.4025 -2.09 20.7425 -1.75 20.0625 C-2.41 20.0625 -3.07 20.0625 -3.75 20.0625 Z M3.25 20.0625 C3.25 20.7225 3.25 21.3825 3.25 22.0625 C3.91 21.7325 4.57 21.4025 5.25 21.0625 C4.59 20.7325 3.93 20.4025 3.25 20.0625 Z M16.25 20.0625 C17.25 22.0625 17.25 22.0625 17.25 22.0625 Z M-17.75 21.0625 C-16.75 23.0625 -16.75 23.0625 -16.75 23.0625 Z M2.25 22.0625 C3.25 24.0625 3.25 24.0625 3.25 24.0625 Z M-18.75 23.0625 C-17.75 26.0625 -17.75 26.0625 -17.75 26.0625 Z M-5.75 23.0625 C-4.75 25.0625 -4.75 25.0625 -4.75 25.0625 Z M1.25 25.0625 C2.25 27.0625 2.25 27.0625 2.25 27.0625 Z M7.25 25.0625 C8.25 27.0625 8.25 27.0625 8.25 27.0625 Z M-19.75 26.0625 C-18.75 29.0625 -18.75 29.0625 -18.75 29.0625 Z M19.25 27.0625 C20.25 29.0625 20.25 29.0625 20.25 29.0625 Z M0.25 28.0625 C0.25 30.0425 0.25 32.0225 0.25 34.0625 C0.58 34.0625 0.91 34.0625 1.25 34.0625 C1.25 32.0825 1.25 30.1025 1.25 28.0625 C0.92 28.0625 0.59 28.0625 0.25 28.0625 Z M-8.75 29.0625 C-7.75 31.0625 -7.75 31.0625 -7.75 31.0625 Z M-20.75 31.0625 C-20.75 33.0425 -20.75 35.0225 -20.75 37.0625 C-20.42 37.0625 -20.09 37.0625 -19.75 37.0625 C-19.75 35.0825 -19.75 33.1025 -19.75 31.0625 C-20.08 31.0625 -20.41 31.0625 -20.75 31.0625 Z M-9.75 33.0625 C-8.75 36.0625 -8.75 36.0625 -8.75 36.0625 Z " fill="#E5BF4D" transform="translate(112.75,51.9375)"/>
<path d="M0 0 C4.926145 3.36002954 8.93412645 7.83592135 12.578125 12.51953125 C15.47130504 15.53193574 17.50522652 15.98335147 21.71484375 16.125 C23.83373039 16.07725044 25.9503818 15.99952771 28.06835938 15.921875 C32.17266266 15.82955703 35.41710256 15.88853189 39 18 C40.87336679 20.96549291 41.19805967 23.02027618 40.94921875 26.484375 C40.15374652 35.8719871 40.15374652 35.8719871 42.3046875 44.8125 C44.08502264 46.77482496 45.91471503 48.36873661 48 50 C49.36594032 51.34261306 50.70034208 52.71812684 52 54.125 C52.598125 54.72570312 53.19625 55.32640625 53.8125 55.9453125 C55 58 55 58 55.08984375 60.8125 C53.57197845 65.25184798 50.92369334 67.69714448 47.5625 70.875 C46.6643457 71.76445312 46.6643457 71.76445312 45.74804688 72.671875 C41.2952639 77 41.2952639 77 39 77 C38.09455887 79.71632338 37.84296079 81.49932777 37.75390625 84.30859375 C37.70459961 85.55286133 37.70459961 85.55286133 37.65429688 86.82226562 C37.59324057 88.56172089 37.53593114 90.30131184 37.48242188 92.04101562 C37.44826172 92.87181641 37.41410156 93.70261719 37.37890625 94.55859375 C37.34132202 95.69252563 37.34132202 95.69252563 37.30297852 96.84936523 C36.95257591 99.33663079 36.39082674 100.90476091 35 103 C32.09499477 104.97345048 29.96750346 105.19718183 26.515625 104.94921875 C15.61234932 103.84556977 15.61234932 103.84556977 6.125 108.125 C4.44025134 110.01236985 4.44025134 110.01236985 3 112 C0.2952833 115.02606918 -2.12565982 117.6008447 -5.875 119.3125 C-10.90031968 118.80996803 -13.60224053 115.55653327 -17 112 C-17.59683594 111.195625 -18.19367188 110.39125 -18.80859375 109.5625 C-21.54155521 106.13117616 -23.77632016 103.40404492 -28.2734375 102.58691406 C-31.83151716 102.30437658 -35.33772814 102.22030671 -38.90527344 102.33642578 C-43.15885861 102.42691025 -45.39098358 102.37247536 -49.09765625 100.10546875 C-51.80197487 95.69082131 -51.4786553 92.12270536 -51.1875 87.0625 C-50.57224512 76.98595348 -50.57224512 76.98595348 -55.3125 68.3671875 C-56.6428125 67.13355469 -56.6428125 67.13355469 -58 65.875 C-63.68756668 60.56770668 -63.68756668 60.56770668 -65 57 C-64.77535797 52.61948035 -62.96618779 50.14595675 -60 47 C-59.34 47 -58.68 47 -58 47 C-57.79375 46.46375 -57.5875 45.9275 -57.375 45.375 C-56 43 -56 43 -52.94921875 40.484375 C-50.21196992 37.79397998 -49.56182351 36.00093606 -49.37109375 32.1796875 C-49.36450524 30.41133206 -49.38732636 28.64265578 -49.4375 26.875 C-49.65097176 17.90918603 -49.65097176 17.90918603 -47.12890625 14.38671875 C-42.54767035 12.3563333 -38.44019786 12.68947081 -33.5 12.9375 C-25.18676765 13.60250649 -25.18676765 13.60250649 -18 10 C-16.24963488 8.33475902 -14.54206203 6.62363082 -12.875 4.875 C-8.58745935 0.37894673 -6.264968 -1.85557831 0 0 Z M-10 14 C-10.82242188 15.01835938 -11.64484375 16.03671875 -12.4921875 17.0859375 C-15.24773327 19.86890373 -17.1475664 20.44064275 -21.0390625 20.62890625 C-22.90116156 20.63550009 -24.76356431 20.61263535 -26.625 20.5625 C-33.60913144 20.16563109 -33.60913144 20.16563109 -39.63671875 23.07421875 C-41.32459092 26.6966149 -41.29813281 29.26721902 -41.1875 33.25 C-41.39824967 39.23294909 -42.15213591 42.13057888 -46.4375 46.375 C-48.58152059 48.21273193 -50.4792354 49.7396177 -53 51 C-53 54.35207917 -52.96857289 56.83195951 -52 60 C-50.18013564 61.70290777 -50.18013564 61.70290777 -48 63.25 C-45.48796811 65.42028903 -44.16167005 67.00247481 -43.62402344 70.31982422 C-43.39617953 74.05878359 -43.34132514 77.7552892 -43.4765625 81.49902344 C-43.65244687 86.3607102 -43.65244687 86.3607102 -41.87890625 90.74975586 C-39.2887738 93.16946238 -37.19207834 93.97929013 -33.703125 94.35546875 C-32.56359375 94.30003906 -31.4240625 94.24460937 -30.25 94.1875 C-24.14527089 94.36876449 -21.49552289 95.59848413 -17.1875 99.9375 C-13.36346516 104.27306968 -13.36346516 104.27306968 -12 107 C-8.16384919 107.55943866 -6.10758887 107.77005723 -2.859375 105.51171875 C-1.47983344 104.27779547 -0.12408326 103.01660893 1.203125 101.7265625 C4.13989952 98.90470525 6.0810972 97.75945367 10.08984375 97.76171875 C11.26643555 97.73754883 11.26643555 97.73754883 12.46679688 97.71289062 C14.10994753 97.69600449 15.75325991 97.69073971 17.39648438 97.69726562 C21.43203282 97.59463888 23.36498598 97.52787975 26.546875 94.8828125 C28.29846729 91.40787941 28.36804574 89.06288372 28.3125 85.1875 C28.57390227 78.95305588 29.67331176 75.89443904 34.11328125 71.55078125 C35.44552545 70.45574824 36.82384725 69.41566001 38.23046875 68.41796875 C38.81441406 67.95003906 39.39835937 67.48210937 40 67 C40 66.34 40 65.68 40 65 C40.66 65 41.32 65 42 65 C42.92273765 61.4768199 43.16675734 59.47084426 41.9375 56 C40.2717184 53.42072527 39.17439416 52.24733116 36.91796875 50.3515625 C33.75656927 47.24720722 33.35847575 44.96204614 33.3125 40.625 C33.333125 39.8825 33.35375 39.14 33.375 38.375 C33.60222999 32.59454224 33.60222999 32.59454224 31.1015625 27.5390625 C28.41765386 25.57352346 27.54044204 24.97990092 24.1640625 25.10546875 C18.49386027 25.23689728 13.94730797 25.22920412 9.6171875 21.30078125 C8.02353557 19.69128543 6.53640726 18.04358448 5.08447266 16.30541992 C2.74511666 13.53407344 1.34054836 12.10057862 -2.1875 11.05859375 C-5.82967334 10.98271514 -7.12682279 11.77328767 -10 14 Z " fill="#35AEC8" transform="translate(118,34)"/>
<path d="M0 0 C0.66 0 1.32 0 2 0 C2.433125 0.928125 2.86625 1.85625 3.3125 2.8125 C4.77509352 5.57517665 5.82300606 6.91371414 8 9 C8.42023438 9.75152344 8.84046875 10.50304687 9.2734375 11.27734375 C11.84077997 15.32584534 15.32272111 18.25585726 18.8203125 21.5 C21.1731357 24.19857859 21.98886538 25.43692192 22 29 C20.06374476 33.3513693 16.79183016 36.51106335 13.4375 39.8125 C12.6959668 40.56563477 12.6959668 40.56563477 11.93945312 41.33398438 C8.25348639 45 8.25348639 45 6 45 C5.09455887 47.71632338 4.84296079 49.49932777 4.75390625 52.30859375 C4.72103516 53.13810547 4.68816406 53.96761719 4.65429688 54.82226562 C4.59324057 56.56172089 4.53593114 58.30131184 4.48242188 60.04101562 C4.44826172 60.87181641 4.41410156 61.70261719 4.37890625 62.55859375 C4.34132202 63.69252563 4.34132202 63.69252563 4.30297852 64.84936523 C3.95257591 67.33663079 3.39082674 68.90476091 2 71 C-0.90500523 72.97345048 -3.03249654 73.19718183 -6.484375 72.94921875 C-17.38765068 71.84556977 -17.38765068 71.84556977 -26.875 76.125 C-28.55974866 78.01236985 -28.55974866 78.01236985 -30 80 C-32.7047167 83.02606918 -35.12565982 85.6008447 -38.875 87.3125 C-43.92634344 86.80736566 -46.53608243 83.49716054 -50 80 C-51.02287109 79.01386719 -51.02287109 79.01386719 -52.06640625 78.0078125 C-55.46212482 74.70127442 -55.46212482 74.70127442 -57 73 C-57 72.67 -57 72.34 -57 72 C-53.04 72.33 -49.08 72.66 -45 73 C-45 73.66 -45 74.32 -45 75 C-38.40021212 74.26669024 -34.8116552 72.56360792 -30.41015625 67.55859375 C-28.73278827 65.70466072 -27.66959642 65.05185066 -25.16821289 64.8581543 C-24.4436792 64.84695557 -23.71914551 64.83575684 -22.97265625 64.82421875 C-21.78446289 64.78844727 -21.78446289 64.78844727 -20.57226562 64.75195312 C-18.90325258 64.70909131 -17.23390164 64.67778227 -15.56445312 64.65820312 C-10.90357388 64.56962837 -10.90357388 64.56962837 -6.94921875 62.37890625 C-5.697176 59.24107071 -5.73527076 56.62299507 -5.75 53.25 C-5.43787108 46.98791359 -4.36020913 43.92979414 0.15234375 39.62109375 C0.76207031 39.08613281 1.37179688 38.55117187 2 38 C2.94196684 37.00420648 3.88010421 36.00476084 4.8125 35 C7 33 7 33 9 33 C9.09163721 27.34467518 8.31230877 23.80346511 4.5 19.5 C3.35229981 18.3146703 2.18976207 17.14310474 1 16 C0 15 0 15 -0.09765625 11.62109375 C-0.09098369 10.22652923 -0.07902532 8.83198257 -0.0625 7.4375 C-0.05798828 6.72658203 -0.05347656 6.01566406 -0.04882812 5.28320312 C-0.03700864 3.52209987 -0.01907263 1.76103964 0 0 Z " fill="#E4C04D" transform="translate(151,66)"/>
<path d="M0 0 C4.556083 0.30584816 8.34009649 0.71056864 12.5625 2.5625 C17.30605579 4.55978665 22.23399288 4.18359345 27.27758789 3.97680664 C31.33146514 3.84274141 34.45815588 3.92151378 38 6 C39.77204109 8.85694845 40.2429721 10.99195297 40.1953125 14.328125 C40.18886719 15.12734375 40.18242187 15.9265625 40.17578125 16.75 C40.15902344 17.575 40.14226562 18.4 40.125 19.25 C40.11597656 20.09046875 40.10695312 20.9309375 40.09765625 21.796875 C40.07415817 23.86470604 40.03828908 25.93238995 40 28 C36.83884224 26.63016497 36.0072908 26.0109362 34 23 C34 22.01 34 21.02 34 20 C33.34 20 32.68 20 32 20 C31.7525 19.38125 31.505 18.7625 31.25 18.125 C29.71181786 15.51009035 28.83022029 15.04471219 26 14 C23.83293993 14.00558521 21.66583164 14.05183001 19.5 14.125 C11.80087032 13.75376314 8.5383931 10.68863245 3.55664062 5.30517578 C0 1.26431488 0 1.26431488 0 0 Z " fill="#E4C14A" transform="translate(119,46)"/>
<path d="M0 0 C5.09892889 3.50551361 9.21390384 8.1490643 13 13 C9.5698043 14.14339857 8.21956643 13.77532211 4.75 13 C-1.65924051 11.79334606 -1.65924051 11.79334606 -8 13 C-9.10548413 14.33614494 -10.1859881 15.69309971 -11.25 17.0625 C-14.22355265 20.39882607 -16.39148563 21.26411285 -20.734375 21.52734375 C-25.50572811 21.58763322 -30.24224472 21.34532095 -35 21 C-31.96611662 17.08123397 -29.97546841 14.67187996 -25.0625 13.5625 C-19.8758303 12.14795372 -16.4964013 8.67359525 -12.875 4.875 C-8.58996553 0.38157479 -6.26217613 -1.86147004 0 0 Z " fill="#34AFC8" transform="translate(118,34)"/>
<path d="M0 0 C1.875 0.3125 1.875 0.3125 4 1 C6 4 6 4 6 7 C6.66 7 7.32 7 8 7 C9.35386936 8.65002828 10.68678142 10.3174387 12 12 C14.06061914 13.22114281 14.06061914 13.22114281 16.90625 12.96484375 C22.48355552 12.92240773 26.51076544 12.93388543 31.1484375 16.25390625 C38 23.15454871 38 23.15454871 38 25 C36.02043559 24.85966889 34.04134859 24.7125877 32.0625 24.5625 C30.40927734 24.44068359 30.40927734 24.44068359 28.72265625 24.31640625 C26 24 26 24 25 23 C23.57018191 22.90368327 22.1361574 22.86802509 20.703125 22.859375 C19.8265625 22.84003906 18.95 22.82070312 18.046875 22.80078125 C16.19813151 22.76721468 14.34904633 22.74872024 12.5 22.74609375 C8.13170402 22.62475219 5.62261428 22.39819261 1.87890625 20.00390625 C-0.67028949 15.92837293 -0.56843856 12.8849569 -0.3125 8.1875 C-0.28994141 7.39923828 -0.26738281 6.61097656 -0.24414062 5.79882812 C-0.18554161 3.86506071 -0.09586827 1.93227833 0 0 Z " fill="#E5C14B" transform="translate(67,114)"/>
<path d="M0 0 C0.80179688 0.00451172 1.60359375 0.00902344 2.4296875 0.01367188 C4.41149006 0.02546832 6.39325433 0.04340395 8.375 0.0625 C6.33056286 1.62159807 4.34829618 3.07807723 2.125 4.375 C-4.62583723 8.51755921 -10.0481411 13.32200788 -15.3515625 19.20703125 C-18.18524537 21.51974493 -19.98215848 22.00027012 -23.625 22.0625 C-25.71484375 20.875 -25.71484375 20.875 -27.5625 19.0625 C-28.56603516 18.09957031 -28.56603516 18.09957031 -29.58984375 17.1171875 C-30.59724609 16.10011719 -30.59724609 16.10011719 -31.625 15.0625 C-32.30691406 14.40507812 -32.98882812 13.74765625 -33.69140625 13.0703125 C-37.08712482 9.76377442 -37.08712482 9.76377442 -38.625 8.0625 C-38.625 7.7325 -38.625 7.4025 -38.625 7.0625 C-34.665 7.3925 -30.705 7.7225 -26.625 8.0625 C-26.625 8.7225 -26.625 9.3825 -26.625 10.0625 C-20.02521212 9.32919024 -16.4366552 7.62610792 -12.03515625 2.62109375 C-8.76632451 -0.99182554 -4.50381075 -0.04752398 0 0 Z " fill="#34AEC8" transform="translate(132.625,130.9375)"/>
<path d="M0 0 C1.18239258 0.02707031 1.18239258 0.02707031 2.38867188 0.0546875 C4.32214261 0.10155952 6.25498285 0.1732959 8.1875 0.25 C8.1875 1.24 8.1875 2.23 8.1875 3.25 C5.53521188 4.32525194 2.90381546 5.34456151 0.1875 6.25 C0.1875 6.91 0.1875 7.57 0.1875 8.25 C-0.63363281 8.96800781 -1.45476562 9.68601562 -2.30078125 10.42578125 C-5.51147244 14.03593635 -5.2111325 15.69929394 -5 20.4375 C-5.16910028 26.82573281 -6.25509138 29.67521424 -10.8125 34.1875 C-15.4629065 38.25 -15.4629065 38.25 -16.8125 38.25 C-16.86639087 36.29196493 -16.90524217 34.33351091 -16.9375 32.375 C-16.96070312 31.28445312 -16.98390625 30.19390625 -17.0078125 29.0703125 C-16.8125 26.25 -16.8125 26.25 -14.8125 24.25 C-14.52465928 22.18396761 -14.52465928 22.18396761 -14.57421875 19.8203125 C-14.55810547 18.94246094 -14.54199219 18.06460938 -14.52539062 17.16015625 C-14.5085354 15.31126741 -14.5032276 13.46223536 -14.50976562 11.61328125 C-14.35895518 4.9678921 -14.35895518 4.9678921 -11.8203125 1.6328125 C-7.75454818 -0.23638304 -4.412663 -0.19233736 0 0 Z " fill="#DDBD53" transform="translate(82.8125,46.75)"/>
<path d="M0 0 C0.66 0 1.32 0 2 0 C2.433125 0.928125 2.86625 1.85625 3.3125 2.8125 C4.77509352 5.57517665 5.82300606 6.91371414 8 9 C8.42023438 9.75152344 8.84046875 10.50304687 9.2734375 11.27734375 C11.84077997 15.32584534 15.32272111 18.25585726 18.8203125 21.5 C21.1731357 24.19857859 21.98886538 25.43692192 22 29 C20.0576335 33.3966202 16.72340528 36.51602509 13.3125 39.8125 C12.80138672 40.31458984 12.29027344 40.81667969 11.76367188 41.33398438 C10.51365638 42.56063509 9.2574532 43.78097491 8 45 C6.85660143 41.5698043 7.22467789 40.21956643 8 36.75 C8.86827256 32.12933274 9.46656263 28.57222466 8 24 C5.59310393 20.73391853 2.86353955 17.86353955 0 15 C-0.07313567 12.46950598 -0.09247527 9.96695163 -0.0625 7.4375 C-0.05798828 6.72658203 -0.05347656 6.01566406 -0.04882812 5.28320312 C-0.03700864 3.52209987 -0.01907263 1.76103964 0 0 Z " fill="#36ADC4" transform="translate(151,66)"/>
<path d="M0 0 C1.32 0 2.64 0 4 0 C4.33 2.97 4.66 5.94 5 9 C5.99 8.01 6.98 7.02 8 6 C9.32 6 10.64 6 12 6 C11.67 7.32 11.34 8.64 11 10 C10.34 10 9.68 10 9 10 C8.13641377 11.78141747 8.13641377 11.78141747 8 14 C9.32 15.32 10.64 16.64 12 18 C12.66 14.04 13.32 10.08 14 6 C15.32 6 16.64 6 18 6 C18 10.95 18 15.9 18 21 C10.48046875 21.390625 10.48046875 21.390625 8 21 C6.17578125 18.984375 6.17578125 18.984375 5 17 C4.67 18.32 4.34 19.64 4 21 C2.35 20.67 0.7 20.34 -1 20 C-1.02888514 16.85418577 -1.04675923 13.70840531 -1.0625 10.5625 C-1.07087891 9.66466797 -1.07925781 8.76683594 -1.08789062 7.84179688 C-1.09111328 6.98779297 -1.09433594 6.13378906 -1.09765625 5.25390625 C-1.10551147 4.06776733 -1.10551147 4.06776733 -1.11352539 2.85766602 C-1 1 -1 1 0 0 Z " fill="#34A4BB" transform="translate(142,175)"/>
<path d="M0 0 C2.23046875 -0.02734375 2.23046875 -0.02734375 5 1 C6.8536259 3.6212341 8.0526504 6.49466345 9.3125 9.4375 C9.67150391 10.22705078 10.03050781 11.01660156 10.40039062 11.83007812 C13 17.63834821 13 17.63834821 13 20 C11.35 20 9.7 20 8 20 C7.67 18.68 7.34 17.36 7 16 C5.54054712 16.08708669 4.08234132 16.19526907 2.625 16.3125 C1.81289062 16.37050781 1.00078125 16.42851562 0.1640625 16.48828125 C-2.37921338 16.82990528 -2.37921338 16.82990528 -4 20 C-5.32 20 -6.64 20 -8 20 C-7.45318976 14.99399078 -5.75859667 11.02818933 -3.4375 6.625 C-3.10814453 5.98433594 -2.77878906 5.34367188 -2.43945312 4.68359375 C-1.63360518 3.11861368 -0.81781507 1.55875979 0 0 Z M2 7 C1.34 8.65 0.68 10.3 0 12 C1.32 12 2.64 12 4 12 C3.67 10.35 3.34 8.7 3 7 C2.67 7 2.34 7 2 7 Z " fill="#32A5BB" transform="translate(100,176)"/>
<path d="M0 0 C0.804375 1.051875 0.804375 1.051875 1.625 2.125 C3.7274877 4.86137748 3.7274877 4.86137748 5.53125 6.24609375 C8.09370044 8.36262757 9.77411982 9.9468762 10.48583984 13.26513672 C10.589325 15.82601575 10.52526227 18.31668851 10.375 20.875 C10.34792969 21.75414063 10.32085937 22.63328125 10.29296875 23.5390625 C10.22270635 25.69377601 10.11509935 27.84721593 10 30 C9.34 30 8.68 30 8 30 C7.566875 29.030625 7.13375 28.06125 6.6875 27.0625 C5.2985139 23.72268235 5.2985139 23.72268235 2 23 C1.979375 21.824375 1.95875 20.64875 1.9375 19.4375 C1.32071017 14.03095167 -1.98791809 11.3521311 -6 8 C-3 7 -3 7 0 8 C-0.33 7.34 -0.66 6.68 -1 6 C-0.34 6 0.32 6 1 6 C0.34 4.35 -0.32 2.7 -1 1 C-0.67 0.67 -0.34 0.34 0 0 Z " fill="#3BA9BE" transform="translate(65,91)"/>
<path d="M0 0 C1.32 0 2.64 0 4 0 C4 6.93 4 13.86 4 21 C-6 21 -6 21 -8.6875 18.9375 C-10.39534422 15.11518198 -10.1114336 13.00116096 -9 9 C-7.8125 7.0625 -7.8125 7.0625 -6 6 C-2.8125 5.8125 -2.8125 5.8125 0 6 C0 4.02 0 2.04 0 0 Z M-4 10 C-5.29633621 11.06645115 -5.29633621 11.06645115 -5.0625 13.5625 C-5.041875 14.366875 -5.02125 15.17125 -5 16 C-2.525 16.495 -2.525 16.495 0 17 C0 14.69 0 12.38 0 10 C-1.32 10 -2.64 10 -4 10 Z " fill="#3C9FB4" transform="translate(122,175)"/>
<path d="M0 0 C0.66 0.33 1.32 0.66 2 1 C1.67 2.32 1.34 3.64 1 5 C-1.64 4.67 -4.28 4.34 -7 4 C-5.6993321 6.6013358 -4.69919978 6.64188008 -2 7.5625 C1.91008174 8.91008174 1.91008174 8.91008174 3 10 C3.28417861 12.69969684 3.32477191 14.41135091 2 16.8125 C-1.15565477 18.68617002 -4.41727113 18.37560867 -8 18 C-8.99 17.67 -9.98 17.34 -11 17 C-10.67 15.68 -10.34 14.36 -10 13 C-7.03 13.33 -4.06 13.66 -1 14 C-1.79191018 11.83762122 -1.79191018 11.83762122 -3.8125 11.359375 C-4.534375 11.15828125 -5.25625 10.9571875 -6 10.75 C-8.1875 9.99609375 -8.1875 9.99609375 -10 9 C-11 5.8125 -11 5.8125 -11 3 C-7.48647291 -0.372986 -4.74686863 -0.3516199 0 0 Z " fill="#B19F40" transform="translate(60,178)"/>
<path d="M0 0 C1.7109375 1.12890625 1.7109375 1.12890625 3 3 C3.29296875 5.91796875 3.29296875 5.91796875 3.1875 9.1875 C3.16042969 10.27417969 3.13335937 11.36085937 3.10546875 12.48046875 C3.07066406 13.31191406 3.03585938 14.14335937 3 15 C1.20906809 15.08086147 -0.58289628 15.13912702 -2.375 15.1875 C-3.87160156 15.23970703 -3.87160156 15.23970703 -5.3984375 15.29296875 C-6.25695312 15.19628906 -7.11546875 15.09960938 -8 15 C-10 12 -10 12 -9.9375 9.4375 C-9 7 -9 7 -6.4375 5.6875 C-5.633125 5.460625 -4.82875 5.23375 -4 5 C-5.32 5 -6.64 5 -8 5 C-8.33 3.68 -8.66 2.36 -9 1 C-5.95016004 -0.52491998 -3.3576631 -0.23562548 0 0 Z M-4 9 C-4.33 9.66 -4.66 10.32 -5 11 C-3.68 11 -2.36 11 -1 11 C-1 10.34 -1 9.68 -1 9 C-1.99 9 -2.98 9 -4 9 Z " fill="#34A8C1" transform="translate(171,181)"/>
<path d="M0 0 C1 2 1 2 0.5 4.375 C-1.64025582 8.12044768 -4.17153891 9.08576945 -8 11 C-7.01 12.485 -7.01 12.485 -6 14 C-5.01 13.67 -4.02 13.34 -3 13 C-2.67 12.01 -2.34 11.02 -2 10 C-1.34 10 -0.68 10 0 10 C0.33 8.68 0.66 7.36 1 6 C3.31 6 5.62 6 8 6 C7.29875 6.53625 6.5975 7.0725 5.875 7.625 C3.13862252 9.7274877 3.13862252 9.7274877 1.75390625 11.53125 C-0.36262757 14.09370044 -1.9468762 15.77411982 -5.26513672 16.48583984 C-7.82601575 16.589325 -10.31668851 16.52526227 -12.875 16.375 C-13.75414063 16.34792969 -14.63328125 16.32085937 -15.5390625 16.29296875 C-17.69377601 16.22270635 -19.84721593 16.11509935 -22 16 C-18.96611662 12.08123397 -16.97546841 9.67187996 -12.0625 8.5625 C-6.92179213 7.16048876 -3.58232228 3.78702641 0 0 Z " fill="#36A7B7" transform="translate(105,39)"/>
<path d="M0 0 C0.66 0 1.32 0 2 0 C1.91131893 1.37608552 1.80314061 2.75091742 1.6875 4.125 C1.62949219 4.89070313 1.57148438 5.65640625 1.51171875 6.4453125 C1 9 1 9 -0.5 11.6875 C-2.504229 16.11350571 -2.56085952 20.06989846 -2.6875 24.875 C-2.72166016 25.75414063 -2.75582031 26.63328125 -2.79101562 27.5390625 C-2.8729314 29.69227705 -2.93815579 31.84611551 -3 34 C-5.89548023 31.10451977 -5.38305338 28.0117552 -5.5 24.125 C-5.58449964 17.77171929 -5.58449964 17.77171929 -8 12 C-8.99 12.33 -9.98 12.66 -11 13 C-9.56177525 9.58139248 -7.78464276 7.72092162 -4.9375 5.375 C-2.02124288 3.04514448 -2.02124288 3.04514448 0 0 Z " fill="#E5B955" transform="translate(158,99)"/>
<path d="M0 0 C3.96 0 7.92 0 12 0 C10.51799926 3.70500184 9.091496 6.67262 7 10 C8.65 10.33 10.3 10.66 12 11 C12 12.32 12 13.64 12 15 C8.04 15 4.08 15 0 15 C0.97255 10.13724999 2.17260969 7.92186398 5 4 C3.35 4 1.7 4 0 4 C0 2.68 0 1.36 0 0 Z " fill="#37A2B8" transform="translate(128,181)"/>
<path d="M0 0 C2.95064148 -0.2208564 5.68368231 -0.28060989 8.625 -0.1875 C9.42679688 -0.17396484 10.22859375 -0.16042969 11.0546875 -0.14648438 C13.03674378 -0.11109051 15.01845551 -0.05728234 17 0 C14.95556286 1.55909807 12.97329618 3.01557723 10.75 4.3125 C3.99916277 8.45505921 -1.4231411 13.25950788 -6.7265625 19.14453125 C-9.50924291 21.41561921 -11.44371114 21.81436954 -15 22 C-16.875 20.5625 -16.875 20.5625 -18 19 C-16.88625 19.061875 -15.7725 19.12375 -14.625 19.1875 C-13.42875 19.125625 -12.2325 19.06375 -11 19 C-10.34 18.01 -9.68 17.02 -9 16 C-8.34 16 -7.68 16 -7 16 C-6.67 14.35 -6.34 12.7 -6 11 C-5.34 11.33 -4.68 11.66 -4 12 C-3.67 11.34 -3.34 10.68 -3 10 C-2.34 10 -1.68 10 -1 10 C-1 9.34 -1 8.68 -1 8 C-0.195625 7.773125 0.60875 7.54625 1.4375 7.3125 C2.283125 6.879375 3.12875 6.44625 4 6 C4.89386164 3.45224694 4.89386164 3.45224694 5 1 C4.21625 1.515625 3.4325 2.03125 2.625 2.5625 C1.325625 3.2740625 1.325625 3.2740625 0 4 C-0.66 3.67 -1.32 3.34 -2 3 C-1.34 2.01 -0.68 1.02 0 0 Z " fill="#3CA5B5" transform="translate(124,131)"/>
<path d="M0 0 C4.62 0 9.24 0 14 0 C14 1.32 14 2.64 14 4 C12.35 4 10.7 4 9 4 C9 8.62 9 13.24 9 18 C7.68 18 6.36 18 5 18 C5 13.38 5 8.76 5 4 C3.02 4 1.04 4 -1 4 C-0.67 2.68 -0.34 1.36 0 0 Z " fill="#B39D31" transform="translate(71,178)"/>
<path d="M0 0 C8.07270308 1.07916343 13.21616089 7.87070614 18 14 C14.52487282 15.15837573 12.86329714 14.77265943 9.3125 14.0625 C7.82169922 13.77052734 7.82169922 13.77052734 6.30078125 13.47265625 C5.54152344 13.31667969 4.78226562 13.16070312 4 13 C4 10.66666667 4 8.33333333 4 6 C3.34 5.67 2.68 5.34 2 5 C2 4.34 2 3.68 2 3 C1.34 2.67 0.68 2.34 0 2 C0 1.34 0 0.68 0 0 Z " fill="#37ABC1" transform="translate(113,33)"/>
<path d="M0 0 C0.66 0.66 1.32 1.32 2 2 C3.65 1.34 5.3 0.68 7 0 C7 1.65 7 3.3 7 5 C5.02 5.66 3.04 6.32 1 7 C1 7.66 1 8.32 1 9 C0.34 9 -0.32 9 -1 9 C-1.33 9.99 -1.66 10.98 -2 12 C-2.33 12 -2.66 12 -3 12 C-3.33 12.66 -3.66 13.32 -4 14 C-4.33 13.01 -4.66 12.02 -5 11 C-6.65 11.66 -8.3 12.32 -10 13 C-10 12.34 -10 11.68 -10 11 C-10.66 10.67 -11.32 10.34 -12 10 C-11.46890625 9.61328125 -10.9378125 9.2265625 -10.390625 8.828125 C-6.67177773 6.08649307 -3.14670262 3.40892784 0 0 Z " fill="#32AECA" transform="translate(122,132)"/>
<path d="M0 0 C0.99 0.33 1.98 0.66 3 1 C4.48693359 0.98259766 4.48693359 0.98259766 6.00390625 0.96484375 C11.55480272 0.92219142 15.53176915 0.9476159 20.14453125 4.25390625 C27 11.14860515 27 11.14860515 27 13 C25.02043559 12.85966889 23.04134859 12.7125877 21.0625 12.5625 C19.40927734 12.44068359 19.40927734 12.44068359 17.72265625 12.31640625 C15 12 15 12 14 11 C12.51361008 10.84344973 11.02050873 10.74933057 9.52734375 10.68359375 C8.17866211 10.62075195 8.17866211 10.62075195 6.80273438 10.55664062 C5.85720703 10.51732422 4.91167969 10.47800781 3.9375 10.4375 C2.98810547 10.39431641 2.03871094 10.35113281 1.06054688 10.30664062 C-1.29281353 10.20020724 -3.64628354 10.09818992 -6 10 C-6 9.67 -6 9.34 -6 9 C2.25 9 10.5 9 19 9 C18.34 7.68 17.68 6.36 17 5 C16.01 5.33 15.02 5.66 14 6 C13.67 5.34 13.34 4.68 13 4 C10.48051359 3.56896902 10.48051359 3.56896902 7.5625 3.4375 C2.18834081 3.0941704 2.18834081 3.0941704 0 2 C0 1.34 0 0.68 0 0 Z " fill="#DABD5B" transform="translate(78,126)"/>
<path d="M0 0 C1.24546405 2.49092811 0.7767578 3.41080733 0 6 C0.66 6 1.32 6 2 6 C2 6.66 2 7.32 2 8 C4.475 8.495 4.475 8.495 7 9 C5 11 5 11 3.02880859 11.22705078 C2.24328613 11.21657715 1.45776367 11.20610352 0.6484375 11.1953125 C-0.20234375 11.18886719 -1.053125 11.18242187 -1.9296875 11.17578125 C-3.26386719 11.15064453 -3.26386719 11.15064453 -4.625 11.125 C-5.97078125 11.11146484 -5.97078125 11.11146484 -7.34375 11.09765625 C-9.56276586 11.0740497 -11.78125077 11.0411231 -14 11 C-11.55671852 7.68568319 -9.66745938 5.46358973 -5.875 3.8125 C-3.33909237 2.68808813 -1.99704988 1.99704988 0 0 Z " fill="#DDBC55" transform="translate(144,128)"/>
<path d="M0 0 C2.97 0.495 2.97 0.495 6 1 C5.01 1.66 4.02 2.32 3 3 C8.41798672 2.30834212 13.6822785 1.24200752 19 0 C19 0.66 19 1.32 19 2 C17.82630859 2.50660156 17.82630859 2.50660156 16.62890625 3.0234375 C15.61699219 3.46945313 14.60507813 3.91546875 13.5625 4.375 C12.55316406 4.81585938 11.54382813 5.25671875 10.50390625 5.7109375 C7.87856453 6.75076286 7.87856453 6.75076286 7 9 C4.03 8.505 4.03 8.505 1 8 C1 7.34 1 6.68 1 6 C0.01 6.33 -0.98 6.66 -2 7 C-5.1875 6.0625 -5.1875 6.0625 -8 5 C-8 4.34 -8 3.68 -8 3 C-5.64561267 1.57055055 -4.51967567 0.91338739 -1.75 1.375 C-1.1725 1.58125 -0.595 1.7875 0 2 C0 1.34 0 0.68 0 0 Z " fill="#DABB4A" transform="translate(123,105)"/>
<path d="M0 0 C0.66 0 1.32 0 2 0 C2.433125 0.928125 2.86625 1.85625 3.3125 2.8125 C4.72038627 5.47184073 5.76123556 7.08105905 8 9 C7.67 9.99 7.34 10.98 7 12 C7 12.99 7 13.98 7 15 C7 15.99 7 16.98 7 18 C1.125 16.125 1.125 16.125 0 15 C-0.07313567 12.46950598 -0.09247527 9.96695163 -0.0625 7.4375 C-0.05798828 6.72658203 -0.05347656 6.01566406 -0.04882812 5.28320312 C-0.03700864 3.52209987 -0.01907263 1.76103964 0 0 Z " fill="#43A9B8" transform="translate(151,66)"/>
<path d="M0 0 C0.66 0.33 1.32 0.66 2 1 C1.649375 1.78375 1.29875 2.5675 0.9375 3.375 C0.628125 4.24125 0.31875 5.1075 0 6 C0.33 6.66 0.66 7.32 1 8 C0.78909214 10.06603621 0.42307844 12.08087967 0.05859375 14.125 C0.03925781 14.74375 0.01992187 15.3625 0 16 C0.66 16.66 1.32 17.32 2 18 C1.67 18.66 1.34 19.32 1 20 C1.66 20 2.32 20 3 20 C2.67 21.32 2.34 22.64 2 24 C0.35 24.33 -1.3 24.66 -3 25 C-2.67 22.69 -2.34 20.38 -2 18 C-3.65 19.65 -5.3 21.3 -7 23 C-7.66 22.67 -8.32 22.34 -9 22 C-8.57847656 21.63390625 -8.15695313 21.2678125 -7.72265625 20.890625 C-2.92049097 16.14495578 -2.30447534 12.32721376 -2.203125 5.671875 C-2 3 -2 3 0 0 Z " fill="#DDBE56" transform="translate(85,63)"/>
<path d="M0 0 C1.5625 1.125 1.5625 1.125 3 3 C3 7.2269765 1.8834587 9.4516596 -0.94140625 12.4296875 C-2.13588779 13.59117231 -3.34339101 14.73939162 -4.5625 15.875 C-5.17802734 16.46796875 -5.79355469 17.0609375 -6.42773438 17.671875 C-7.94072255 19.12622022 -9.468904 20.5647306 -11 22 C-12.30211046 18.09366863 -11.47812346 15.80461827 -10.5625 11.8125 C-10.27503906 10.54019531 -9.98757812 9.26789063 -9.69140625 7.95703125 C-9.46324219 6.98121094 -9.23507813 6.00539063 -9 5 C-8.02408417 8.38317487 -8.14143345 10.5657338 -9 14 C-7.68 14 -6.36 14 -5 14 C-5 13.01 -5 12.02 -5 11 C-4.34 11 -3.68 11 -3 11 C-2.34 9.68 -1.68 8.36 -1 7 C-0.34 7 0.32 7 1 7 C0.67 4.69 0.34 2.38 0 0 Z " fill="#3FA2B1" transform="translate(170,89)"/>
<path d="M0 0 C1.32 0 2.64 0 4 0 C4 5.94 4 11.88 4 18 C2.68 18 1.36 18 0 18 C0 12.06 0 6.12 0 0 Z " fill="#B19F46" transform="translate(65,178)"/>
<path d="M0 0 C0.639375 0.2475 1.27875 0.495 1.9375 0.75 C3.35683513 5.00800538 3.66401677 8.97911538 1.9375 13.1875 C1.6075 13.703125 1.2775 14.21875 0.9375 14.75 C-1.015625 13.60546875 -1.015625 13.60546875 -3.0625 11.75 C-3.671875 9.05078125 -3.671875 9.05078125 -3.8125 6.0625 C-3.86921875 5.06863281 -3.9259375 4.07476562 -3.984375 3.05078125 C-4.01015625 2.29152344 -4.0359375 1.53226562 -4.0625 0.75 C-2.0625 -0.25 -2.0625 -0.25 0 0 Z " fill="#E5C248" transform="translate(150.0625,111.25)"/>
<path d="M0 0 C1.875 0.3125 1.875 0.3125 4 1 C6 4 6 4 6 7 C6.66 7 7.32 7 8 7 C9.625 9.5 9.625 9.5 11 12 C6.084709 10.53869727 5.92143173 9.86905288 3 5 C3 9.29 3 13.58 3 18 C3.66 18 4.32 18 5 18 C5 18.99 5 19.98 5 21 C1.125 19.25 1.125 19.25 0 17 C-0.07194869 14.11629667 -0.09291708 11.25760336 -0.0625 8.375 C-0.05798828 7.57320313 -0.05347656 6.77140625 -0.04882812 5.9453125 C-0.03703168 3.96350994 -0.01909605 1.98174567 0 0 Z " fill="#D0BA5F" transform="translate(67,114)"/>
<path d="M0 0 C2.48046875 1.390625 2.48046875 1.390625 5 4 C5.63790959 7.2642853 5.47141856 10.43960423 5.3125 13.75 C5.27866211 15.08224609 5.27866211 15.08224609 5.24414062 16.44140625 C5.18532552 18.62932812 5.10321268 20.81379671 5 23 C4.34 23 3.68 23 3 23 C2.566875 22.030625 2.13375 21.06125 1.6875 20.0625 C0.2985139 16.72268235 0.2985139 16.72268235 -3 16 C-3 14.02 -3 12.04 -3 10 C0.875 13.75 0.875 13.75 2 16 C2.33 12.04 2.66 8.08 3 4 C2.01 3.67 1.02 3.34 0 3 C0 2.01 0 1.02 0 0 Z " fill="#4A9DA0" transform="translate(70,98)"/>
<path d="M0 0 C1.98 0 3.96 0 6 0 C6.66 1.65 7.32 3.3 8 5 C6.68 6.32 5.36 7.64 4 9 C1.5625 8.1875 1.5625 8.1875 -1 7 C-2 4 -2 4 -1.0625 1.8125 C-0.5365625 0.9153125 -0.5365625 0.9153125 0 0 Z " fill="#B9A736" transform="translate(107,156)"/>
<path d="M0 0 C2 2 2 2 2.22705078 3.87939453 C2.21134033 4.99483643 2.21134033 4.99483643 2.1953125 6.1328125 C2.18564453 7.34130859 2.18564453 7.34130859 2.17578125 8.57421875 C2.15902344 9.41597656 2.14226562 10.25773437 2.125 11.125 C2.11597656 11.97449219 2.10695312 12.82398437 2.09765625 13.69921875 C2.07405647 15.79959884 2.03818483 17.89983444 2 20 C-1.16115776 18.63016497 -1.9927092 18.0109362 -4 15 C-4 14.01 -4 13.02 -4 12 C-4.66 12 -5.32 12 -6 12 C-6 11.34 -6 10.68 -6 10 C-3.525 10.495 -3.525 10.495 -1 11 C-0.67 7.37 -0.34 3.74 0 0 Z " fill="#C7B762" transform="translate(157,54)"/>
<path d="M0 0 C5.27315333 0.4452885 10.01770224 1.08373163 15 3 C15 3.66 15 4.32 15 5 C13.35 5.33 11.7 5.66 10 6 C10.33 7.65 10.66 9.3 11 11 C6.86378916 7.6189962 3.18683431 4.33409466 0 0 Z " fill="#D9BB56" transform="translate(119,46)"/>
<path d="M0 0 C5.28 0 10.56 0 16 0 C16 0.33 16 0.66 16 1 C14.02 1 12.04 1 10 1 C10 1.99 10 2.98 10 4 C9.34 4 8.68 4 8 4 C8 4.99 8 5.98 8 7 C4.52674819 8.1577506 1.63932552 8.06866652 -2 8 C-1.67 7.34 -1.34 6.68 -1 6 C0.65 6.33 2.3 6.66 4 7 C4 5.68 4 4.36 4 3 C2.35 2.67 0.7 2.34 -1 2 C-0.67 1.34 -0.34 0.68 0 0 Z " fill="#ECD03B" transform="translate(136,50)"/>
<path d="M0 0 C2.5625 0.1875 2.5625 0.1875 4.5625 2.1875 C4.23278521 5.48464793 3.9398161 6.8101839 1.5625 9.1875 C-1.37203261 8.82068342 -2.30187246 8.32312754 -4.4375 6.1875 C-3.71780303 0.28598485 -3.71780303 0.28598485 0 0 Z " fill="#AC9F50" transform="translate(115.4375,21.8125)"/>
<path d="M0 0 C4.55555556 0.55555556 4.55555556 0.55555556 6 2 C6.1875 4.4375 6.1875 4.4375 6 7 C5.34 7.66 4.68 8.32 4 9 C0.70285207 8.67028521 -0.6226839 8.3773161 -3 6 C-2.63318342 3.06546739 -2.13562754 2.13562754 0 0 Z " fill="#AD9C47" transform="translate(161,43)"/>
<path d="M0 0 C0.66 0.33 1.32 0.66 2 1 C1.67 2.32 1.34 3.64 1 5 C-1.64 4.67 -4.28 4.34 -7 4 C-6.67 4.66 -6.34 5.32 -6 6 C-3.97536745 6.65213292 -3.97536745 6.65213292 -2 7 C-2 7.99 -2 8.98 -2 10 C-5.78383679 9.07506212 -7.56693694 8.60628829 -9.875 5.375 C-10.431875 4.199375 -10.431875 4.199375 -11 3 C-7.48647291 -0.372986 -4.74686863 -0.3516199 0 0 Z " fill="#B79C34" transform="translate(60,178)"/>
<path d="M0 0 C1.1446875 0.3403125 1.1446875 0.3403125 2.3125 0.6875 C3 3 3 3 3.3125 5.6875 C2.1875 7.5625 2.1875 7.5625 0.3125 8.6875 C-2.375 8.375 -2.375 8.375 -4.6875 7.6875 C-5.375 5.375 -5.375 5.375 -5.6875 2.6875 C-4.0011022 -0.12316299 -3.27764429 -0.38112143 0 0 Z " fill="#B19E3C" transform="translate(180.6875,90.3125)"/>
<path d="M0 0 C2.5625 0.1875 2.5625 0.1875 4.5625 2.1875 C4.00694444 6.74305556 4.00694444 6.74305556 2.5625 8.1875 C0.125 8.375 0.125 8.375 -2.4375 8.1875 C-3.0975 7.5275 -3.7575 6.8675 -4.4375 6.1875 C-3.71780303 0.28598485 -3.71780303 0.28598485 0 0 Z " fill="#B6A13A" transform="translate(157.4375,137.8125)"/>
<path d="M0 0 C2.64 0 5.28 0 8 0 C8.33 0.66 8.66 1.32 9 2 C6.59016393 6.70491803 6.59016393 6.70491803 4 8 C1.62597499 8.07116382 -0.75000677 8.08409085 -3.125 8.0625 C-4.40632812 8.05347656 -5.68765625 8.04445313 -7.0078125 8.03515625 C-8.48894531 8.01775391 -8.48894531 8.01775391 -10 8 C-10 7.34 -10 6.68 -10 6 C-5.05 6 -0.1 6 5 6 C5 4.68 5 3.36 5 2 C3.35 2.33 1.7 2.66 0 3 C0 2.01 0 1.02 0 0 Z " fill="#D5B85F" transform="translate(133,113)"/>
<path d="M0 0 C2.5625 0.1875 2.5625 0.1875 4.5625 2.1875 C4.00694444 6.74305556 4.00694444 6.74305556 2.5625 8.1875 C0.125 8.375 0.125 8.375 -2.4375 8.1875 C-3.0975 7.5275 -3.7575 6.8675 -4.4375 6.1875 C-3.71780303 0.28598485 -3.71780303 0.28598485 0 0 Z " fill="#B29D3B" transform="translate(65.4375,37.8125)"/>
<path d="M0 0 C1.2065625 0.0309375 1.2065625 0.0309375 2.4375 0.0625 C3.5625 2.375 3.5625 2.375 4.4375 5.0625 C3.4475 6.5475 3.4475 6.5475 2.4375 8.0625 C-0.0625 8.375 -0.0625 8.375 -2.5625 8.0625 C-3.2225 7.4025 -3.8825 6.7425 -4.5625 6.0625 C-3.83457637 0.09352625 -3.83457637 0.09352625 0 0 Z " fill="#B49E3B" transform="translate(63.5625,135.9375)"/>
<path d="M0 0 C1.2065625 0.0309375 1.2065625 0.0309375 2.4375 0.0625 C3.5625 2.375 3.5625 2.375 4.4375 5.0625 C3.4475 6.5475 3.4475 6.5475 2.4375 8.0625 C-0.0625 8.375 -0.0625 8.375 -2.5625 8.0625 C-3.2225 7.4025 -3.8825 6.7425 -4.5625 6.0625 C-3.83457637 0.09352625 -3.83457637 0.09352625 0 0 Z " fill="#A99C4C" transform="translate(45.5625,84.9375)"/>
<path d="M0 0 C0.66 0 1.32 0 2 0 C2 6.27 2 12.54 2 19 C-0.64 19 -3.28 19 -6 19 C-6.33 18.34 -6.66 17.68 -7 17 C-3.535 16.505 -3.535 16.505 0 16 C-0.08378906 15.34773437 -0.16757813 14.69546875 -0.25390625 14.0234375 C-0.82554104 9.11750856 -1.15311982 4.86872815 0 0 Z " fill="#29ACC8" transform="translate(123,176)"/>
<path d="M0 0 C0.66 0 1.32 0 2 0 C1.91131893 1.37608552 1.80314061 2.75091742 1.6875 4.125 C1.62949219 4.89070313 1.57148438 5.65640625 1.51171875 6.4453125 C1 9 1 9 -0.5 11.6875 C-2.504229 16.11350571 -2.56085952 20.06989846 -2.6875 24.875 C-2.72166016 25.75414063 -2.75582031 26.63328125 -2.79101562 27.5390625 C-2.8729314 29.69227705 -2.93815579 31.84611551 -3 34 C-3.33 34 -3.66 34 -4 34 C-4.05834353 30.77090994 -4.09371115 27.54195662 -4.125 24.3125 C-4.15013672 22.94448242 -4.15013672 22.94448242 -4.17578125 21.54882812 C-4.20995709 16.84964953 -4.08323906 13.3059075 -2 9 C-2 7.96875 -2 6.9375 -2 5.875 C-2 3 -2 3 0 0 Z " fill="#D0BE6F" transform="translate(158,99)"/>
<path d="M0 0 C1.32 0 2.64 0 4 0 C4.22245393 1.60226955 4.42746669 3.20696767 4.625 4.8125 C4.74101563 5.70582031 4.85703125 6.59914063 4.9765625 7.51953125 C5 10 5 10 3 13 C2.01 12.01 1.02 11.02 0 10 C0.66 9.67 1.32 9.34 2 9 C1.67 8.01 1.34 7.02 1 6 C0.01 6 -0.98 6 -2 6 C-1.34 4.02 -0.68 2.04 0 0 Z " fill="#E6C14A" transform="translate(72,49)"/>
<path d="M0 0 C2.475 0.99 2.475 0.99 5 2 C5 6.29 5 10.58 5 15 C0.35294118 10.35294118 0.35294118 10.35294118 0 6 C0.33 5.67 0.66 5.34 1 5 C0.71395102 3.32457024 0.38218767 1.65614657 0 0 Z " fill="#33B0CA" transform="translate(68,100)"/>
<path d="M0 0 C3.96 0.33 7.92 0.66 12 1 C12 1.66 12 2.32 12 3 C13.98 3 15.96 3 18 3 C17.34 3.66 16.68 4.32 16 5 C12.46782421 4.67889311 9.36550494 4.12183498 6 3 C5.67 3.99 5.34 4.98 5 6 C3.35 4.02 1.7 2.04 0 0 Z " fill="#56A8A0" transform="translate(94,138)"/>
<path d="M0 0 C3.5 0.125 3.5 0.125 4.5 1.125 C4.57179964 2.64428038 4.58392007 4.16667482 4.5625 5.6875 C4.55347656 6.51378906 4.54445313 7.34007812 4.53515625 8.19140625 C4.52355469 8.82949219 4.51195313 9.46757812 4.5 10.125 C4.17 10.125 3.84 10.125 3.5 10.125 C3.5 7.815 3.5 5.505 3.5 3.125 C1.52 3.455 -0.46 3.785 -2.5 4.125 C-2.83 5.115 -3.16 6.105 -3.5 7.125 C-4.16 6.795 -4.82 6.465 -5.5 6.125 C-4.42903226 0.15817972 -4.42903226 0.15817972 0 0 Z " fill="#38A5BD" transform="translate(118.5,181.875)"/>
<path d="M0 0 C0.33 0.66 0.66 1.32 1 2 C-0.17369141 2.50660156 -0.17369141 2.50660156 -1.37109375 3.0234375 C-2.38300781 3.46945313 -3.39492187 3.91546875 -4.4375 4.375 C-5.44683594 4.81585938 -6.45617187 5.25671875 -7.49609375 5.7109375 C-10.12143547 6.75076286 -10.12143547 6.75076286 -11 9 C-11.66 9 -12.32 9 -13 9 C-13 7.68 -13 6.36 -13 5 C-14.32 4.67 -15.64 4.34 -17 4 C-11.39 2.68 -5.78 1.36 0 0 Z " fill="#D9B269" transform="translate(141,105)"/>
<path d="M0 0 C0 1.65 0 3.3 0 5 C-0.99 5 -1.98 5 -3 5 C-3.33 6.65 -3.66 8.3 -4 10 C-5.32 9.67 -6.64 9.34 -8 9 C-8.33 7.68 -8.66 6.36 -9 5 C-2.63636364 0 -2.63636364 0 0 0 Z " fill="#31AFC5" transform="translate(65,78)"/>
<path d="M0 0 C0.66 0.66 1.32 1.32 2 2 C3.65 1.34 5.3 0.68 7 0 C7 1.65 7 3.3 7 5 C4.35261084 6.4606285 3.10551666 7 0 7 C-1.6875 5 -1.6875 5 -3 3 C-2.01 2.01 -1.02 1.02 0 0 Z " fill="#29BDD0" transform="translate(122,132)"/>
<path d="M0 0 C1.98 0 3.96 0 6 0 C6 0.66 6 1.32 6 2 C6.99 1.67 7.98 1.34 9 1 C10.66621616 0.96125079 12.33394172 0.9549714 14 1 C14.33 1.99 14.66 2.98 15 4 C13.06257659 4.02703381 11.12504521 4.04641125 9.1875 4.0625 C8.10855469 4.07410156 7.02960938 4.08570312 5.91796875 4.09765625 C3 4 3 4 0 3 C0 2.01 0 1.02 0 0 Z " fill="#E8C149" transform="translate(85,115)"/>
<path d="M0 0 C6.27 1.32 12.54 2.64 19 4 C15.36188586 6.42540943 14.30883674 6.5483974 10 6 C6.55862293 4.52365438 3.27518282 2.81235413 0 1 C0 0.67 0 0.34 0 0 Z " fill="#C7B871" transform="translate(83,105)"/>
<path d="M0 0 C5 7.5 5 7.5 5 11 C3.35 11 1.7 11 0 11 C-0.33 9.68 -0.66 8.36 -1 7 C-3.31 7 -5.62 7 -8 7 C-8 6.67 -8 6.34 -8 6 C-5.36 6 -2.72 6 0 6 C0 4.02 0 2.04 0 0 Z " fill="#3C9EB1" transform="translate(108,185)"/>
<path d="M0 0 C1.32 0 2.64 0 4 0 C4 1.98 4 3.96 4 6 C3.67 4.68 3.34 3.36 3 2 C2.34 2 1.68 2 1 2 C0.67 7.28 0.34 12.56 0 18 C-0.33 18 -0.66 18 -1 18 C-1.02684312 15.18743719 -1.04676188 12.37512759 -1.0625 9.5625 C-1.07087891 8.76005859 -1.07925781 7.95761719 -1.08789062 7.13085938 C-1.0965143 5.08704779 -1.0522815 3.04316098 -1 1 C-0.67 0.67 -0.34 0.34 0 0 Z " fill="#3B98AD" transform="translate(142,175)"/>
<path d="M0 0 C-0.96355353 11.52164009 -0.96355353 11.52164009 -2 17 C-2.33 17 -2.66 17 -3 17 C-3.5745952 13.26513121 -4 9.78706732 -4 6 C-4.99 5.67 -5.98 5.34 -7 5 C-2.25 0 -2.25 0 0 0 Z " fill="#4AA5A9" transform="translate(67,74)"/>
<path d="M0 0 C0.66 0.33 1.32 0.66 2 1 C2 1.66 2 2.32 2 3 C2.66 3.33 3.32 3.66 4 4 C3.67 4.99 3.34 5.98 3 7 C2.48824219 6.6803125 1.97648437 6.360625 1.44921875 6.03125 C-2.82132795 4.23312507 -7.39897244 4.53248311 -11.98046875 4.34375 C-12.97691406 4.2303125 -13.97335938 4.116875 -15 4 C-15.33 3.34 -15.66 2.68 -16 2 C-15.26394531 2.02320313 -14.52789062 2.04640625 -13.76953125 2.0703125 C-12.30580078 2.09738281 -12.30580078 2.09738281 -10.8125 2.125 C-9.36810547 2.15980469 -9.36810547 2.15980469 -7.89453125 2.1953125 C-4.86989467 1.99122096 -2.77853992 1.14212867 0 0 Z " fill="#DCBE63" transform="translate(146,55)"/>
<path d="M0 0 C3.63 0 7.26 0 11 0 C11.33 0.99 11.66 1.98 12 3 C10.02 3.66 8.04 4.32 6 5 C6.33 4.34 6.66 3.68 7 3 C5.35 2.67 3.7 2.34 2 2 C1.67 2.99 1.34 3.98 1 5 C0.67 3.35 0.34 1.7 0 0 Z " fill="#D8BD5D" transform="translate(83,113)"/>
<path d="M0 0 C1.5625 1.125 1.5625 1.125 3 3 C3 5.9375 3 5.9375 2 9 C-0.5625 11.375 -0.5625 11.375 -3 13 C-2.67 11.35 -2.34 9.7 -2 8 C-1.01 7.67 -0.02 7.34 1 7 C0.34 5.02 -0.32 3.04 -1 1 C-0.67 0.67 -0.34 0.34 0 0 Z " fill="#DABA5A" transform="translate(148,86)"/>
<path d="M0 0 C0.33 0.66 0.66 1.32 1 2 C0.01 2 -0.98 2 -2 2 C-2 2.66 -2 3.32 -2 4 C-3.98 4.33 -5.96 4.66 -8 5 C-8.33 3.68 -8.66 2.36 -9 1 C-6.04335481 -0.4783226 -3.25770263 -0.06032783 0 0 Z " fill="#39A0B6" transform="translate(171,181)"/>
<path d="M0 0 C1.98 0 3.96 0 6 0 C4.02579865 2.52259061 3.03254358 2.9929808 -0.1875 3.6875 C-1.5796875 3.8421875 -1.5796875 3.8421875 -3 4 C-2.67 5.32 -2.34 6.64 -2 8 C-3.98 8 -5.96 8 -8 8 C-5.61042731 4.75700849 -3.7952131 2.49097658 0 1 C0 0.67 0 0.34 0 0 Z " fill="#629F88" transform="translate(91,47)"/>
<path d="M0 0 C4.455 0.99 4.455 0.99 9 2 C9 2.66 9 3.32 9 4 C5.7 4 2.4 4 -1 4 C-0.67 2.68 -0.34 1.36 0 0 Z " fill="#B6A22F" transform="translate(50,191)"/>
<path d="M0 0 C1.32 0 2.64 0 4 0 C4 4.95 4 9.9 4 15 C2.68 14.67 1.36 14.34 0 14 C0.99 14 1.98 14 3 14 C2.67 10.37 2.34 6.74 2 3 C1.34 4.32 0.68 5.64 0 7 C0 4.69 0 2.38 0 0 Z " fill="#44A4B8" transform="translate(156,181)"/>
<path d="M0 0 C0.66 0.33 1.32 0.66 2 1 C2 4.63 2 8.26 2 12 C1.01 12 0.02 12 -1 12 C-1.08159574 7.83861737 -0.98248524 4.0527516 0 0 Z " fill="#28AAC5" transform="translate(157,183)"/>
<path d="M0 0 C0.66 0.33 1.32 0.66 2 1 C0.625 2.5 0.625 2.5 -1 4 C-1.66 4 -2.32 4 -3 4 C-3 4.66 -3 5.32 -3 6 C-1.02 6 0.96 6 3 6 C3 6.33 3 6.66 3 7 C-0.63 7 -4.26 7 -8 7 C-3.76744186 1.25581395 -3.76744186 1.25581395 0 0 Z " fill="#A8B372" transform="translate(138,132)"/>
<path d="M0 0 C0 3 0 3 -1 5 C-0.34 5 0.32 5 1 5 C1.33 6.65 1.66 8.3 2 10 C-0.31 10 -2.62 10 -5 10 C-4.34 9.34 -3.68 8.68 -3 8 C-2.34 8.33 -1.68 8.66 -1 9 C-1 8.34 -1 7.68 -1 7 C-1.66 7 -2.32 7 -3 7 C-2.625 4.0625 -2.625 4.0625 -2 1 C-1.34 0.67 -0.68 0.34 0 0 Z " fill="#E6C146" transform="translate(147,127)"/>
<path d="M0 0 C0.66 0 1.32 0 2 0 C2 0.66 2 1.32 2 2 C2.763125 1.9175 3.52625 1.835 4.3125 1.75 C5.6428125 1.87375 5.6428125 1.87375 7 2 C7.99 3.32 8.98 4.64 10 6 C6.7 5.67 3.4 5.34 0 5 C-0.33 4.01 -0.66 3.02 -1 2 C-0.67 1.34 -0.34 0.68 0 0 Z " fill="#E9BB54" transform="translate(94,112)"/>
<path d="M0 0 C0.66 0 1.32 0 2 0 C2.33 1.65 2.66 3.3 3 5 C4.32 5.33 5.64 5.66 7 6 C7 6.99 7 7.98 7 9 C3.21616321 8.07506212 1.43306306 7.60628829 -0.875 4.375 C-1.24625 3.59125 -1.6175 2.8075 -2 2 C-1.34 1.34 -0.68 0.68 0 0 Z " fill="#BCA32D" transform="translate(51,179)"/>
<path d="M0 0 C1.16959987 0.97566112 2.33561177 1.955625 3.5 2.9375 C4.1496875 3.48277344 4.799375 4.02804688 5.46875 4.58984375 C6.22671875 5.28787109 6.22671875 5.28787109 7 6 C7 6.33 7 6.66 7 7 C5.02013918 6.88652381 3.04108402 6.7589065 1.0625 6.625 C-0.03964844 6.55539063 -1.14179687 6.48578125 -2.27734375 6.4140625 C-3.17582031 6.27742187 -4.07429688 6.14078125 -5 6 C-5.33 5.34 -5.66 4.68 -6 4 C-3.36 4 -0.72 4 2 4 C1.34 2.68 0.68 1.36 0 0 Z " fill="#C0B95F" transform="translate(98,132)"/>
<path d="M0 0 C5.61 0 11.22 0 17 0 C15.68 0.99 14.36 1.98 13 3 C12.67 2.34 12.34 1.68 12 1 C7.02906176 1.41153737 2.55491614 1.79600832 -2 4 C-1.34 2.68 -0.68 1.36 0 0 Z " fill="#4DA4AC" transform="translate(124,131)"/>
<path d="M0 0 C5.27315333 0.4452885 10.01770224 1.08373163 15 3 C11.96949115 3.91330404 9.52031431 4.06558338 6.375 3.75 C5.59898438 3.68296875 4.82296875 3.6159375 4.0234375 3.546875 C2 3 2 3 0 0 Z " fill="#AABD7B" transform="translate(119,46)"/>
<path d="M0 0 C1.231394 3.69418201 0.64432764 6.2056261 0 10 C0.66 10.33 1.32 10.66 2 11 C0.68 11.99 -0.64 12.98 -2 14 C-2.05389087 12.04196493 -2.09274217 10.08351091 -2.125 8.125 C-2.14820312 7.03445312 -2.17140625 5.94390625 -2.1953125 4.8203125 C-2 2 -2 2 0 0 Z " fill="#A9B77A" transform="translate(68,71)"/>
<path d="M0 0 C0 3 0 3 -1 6 C-4.42264319 7.42610133 -8.09879533 7.09901205 -11.75 7.0625 C-12.92046875 7.05347656 -14.0909375 7.04445313 -15.296875 7.03515625 C-16.18890625 7.02355469 -17.0809375 7.01195312 -18 7 C-18 6.67 -18 6.34 -18 6 C-17.20335938 5.98582031 -16.40671875 5.97164062 -15.5859375 5.95703125 C-8.64077203 5.64441431 -4.78011721 5.17846031 0 0 Z " fill="#D4B960" transform="translate(105,56)"/>
<path d="M0 0 C0.33 0.99 0.66 1.98 1 3 C1.99 3.33 2.98 3.66 4 4 C3.34 5.32 2.68 6.64 2 8 C0.68 8 -0.64 8 -2 8 C-1.125 2.25 -1.125 2.25 0 0 Z " fill="#3BA4B0" transform="translate(94,188)"/>
<path d="M0 0 C-0.33 1.65 -0.66 3.3 -1 5 C-2.65 5 -4.3 5 -6 5 C-6 3.68 -6 2.36 -6 1 C-4 0 -4 0 0 0 Z " fill="#BAA033" transform="translate(48,87)"/>
<path d="M0 0 C1.9375 0.3125 1.9375 0.3125 4 1 C4.33 1.99 4.66 2.98 5 4 C4.34 4 3.68 4 3 4 C3 5.98 3 7.96 3 10 C0.64551835 7.44931155 0.01672076 6.28982642 -0.1875 2.75 C-0.125625 1.8425 -0.06375 0.935 0 0 Z " fill="#2BAECB" transform="translate(143,186)"/>
<path d="M0 0 C1.07310858 3.27185553 0.89263102 5.42947592 0.0625 8.75 C-0.22947266 9.94882813 -0.22947266 9.94882813 -0.52734375 11.171875 C-0.68332031 11.77515625 -0.83929688 12.3784375 -1 13 C-0.34 13.33 0.32 13.66 1 14 C-0.32 14.99 -1.64 15.98 -3 17 C-2.69095829 14.72869344 -2.37765093 12.45796695 -2.0625 10.1875 C-1.88847656 8.92292969 -1.71445313 7.65835938 -1.53515625 6.35546875 C-1 3 -1 3 0 0 Z " fill="#5BA6A3" transform="translate(161,94)"/>
<path d="M0 0 C0.33 0 0.66 0 1 0 C1 1.65 1 3.3 1 5 C1.99 5.33 2.98 5.66 4 6 C4.33 7.98 4.66 9.96 5 12 C1.50291018 8.86158606 -0.73915094 6.8257077 -1 2 C-0.67 1.34 -0.34 0.68 0 0 Z " fill="#439FAD" transform="translate(54,86)"/>
<path d="M0 0 C1.45792884 -0.05399736 2.91642712 -0.09279177 4.375 -0.125 C5.18710938 -0.14820313 5.99921875 -0.17140625 6.8359375 -0.1953125 C9 0 9 0 11 2 C9.7625 1.9175 8.525 1.835 7.25 1.75 C3.89493302 1.7262052 3.24552096 1.80358323 0.5 4 C0.005 4.66 -0.49 5.32 -1 6 C-1.33 5.01 -1.66 4.02 -2 3 C-1.34 3 -0.68 3 0 3 C0 2.01 0 1.02 0 0 Z " fill="#DEBF53" transform="translate(146,51)"/>
<path d="M0 0 C1.32 0 2.64 0 4 0 C4 1.65 4 3.3 4 5 C2.35 4.67 0.7 4.34 -1 4 C-0.67 2.68 -0.34 1.36 0 0 Z " fill="#439FAF" transform="translate(156,175)"/>
<path d="M0 0 C0.33 0 0.66 0 1 0 C1.06058594 0.67546875 1.12117187 1.3509375 1.18359375 2.046875 C1.26738281 2.93890625 1.35117188 3.8309375 1.4375 4.75 C1.55931641 6.07257813 1.55931641 6.07257813 1.68359375 7.421875 C1.96238465 9.69350452 2.38790577 11.79851823 3 14 C1.68 14.33 0.36 14.66 -1 15 C-0.67 10.05 -0.34 5.1 0 0 Z " fill="#EFA164" transform="translate(146,113)"/>
<path d="M0 0 C1.5 1.3125 1.5 1.3125 3 3 C3 3.99 3 4.98 3 6 C3.66 6 4.32 6 5 6 C6.625 8.5 6.625 8.5 8 11 C4.77204678 10.04033823 3.25871639 9.33900769 1.1875 6.625 C0 4 0 4 0 0 Z " fill="#C3BC68" transform="translate(70,115)"/>
<path d="M0 0 C0 0.99 0 1.98 0 3 C0.66 3 1.32 3 2 3 C2 2.34 2 1.68 2 1 C2.66 1 3.32 1 4 1 C4 1.99 4 2.98 4 4 C2.741875 3.87625 1.48375 3.7525 0.1875 3.625 C-0.87404297 3.52058594 -0.87404297 3.52058594 -1.95703125 3.4140625 C-4 3 -4 3 -7 1 C-4 0 -4 0 0 0 Z " fill="#DEBD5C" transform="translate(103,105)"/>
<path d="M0 0 C1.1663562 2.3327124 1.52307621 4.43653465 2 7 C2.185625 7.928125 2.37125 8.85625 2.5625 9.8125 C2.7790625 10.8953125 2.7790625 10.8953125 3 12 C0.38722542 10.39862203 -0.82403075 9.49020006 -1.875 6.5625 C-2.01411453 3.71065206 -1.50303217 2.38716874 0 0 Z " fill="#D2BB60" transform="translate(75,86)"/>
<path d="M0 0 C2.97 0.495 2.97 0.495 6 1 C2.51847024 3.32101984 0.13830989 3.69903201 -4 4 C-4.66 3.34 -5.32 2.68 -6 2 C-3.50907189 0.75453595 -2.58919267 1.2232422 0 2 C0 1.34 0 0.68 0 0 Z " fill="#DBBE5D" transform="translate(123,105)"/>
<path d="M0 0 C2.475 0.495 2.475 0.495 5 1 C5 1.66 5 2.32 5 3 C6.32 3.33 7.64 3.66 9 4 C8.67 4.66 8.34 5.32 8 6 C2.25 3.375 2.25 3.375 0 0 Z " fill="#DAB55B" transform="translate(78,98)"/>
<path d="M0 0 C2.475 0.495 2.475 0.495 5 1 C5 3.31 5 5.62 5 8 C3.5 6.6875 3.5 6.6875 2 5 C2 4.01 2 3.02 2 2 C1.34 2 0.68 2 0 2 C0 1.34 0 0.68 0 0 Z " fill="#CEC672" transform="translate(151,64)"/>
<path d="M0 0 C1.32 0 2.64 0 4 0 C3.67 1.65 3.34 3.3 3 5 C1.68 4.67 0.36 4.34 -1 4 C-0.67 2.68 -0.34 1.36 0 0 Z " fill="#BEA22A" transform="translate(161,45)"/>
<path d="M0 0 C0.99 0.99 1.98 1.98 3 3 C-0.47512718 4.15837573 -2.13670286 3.77265943 -5.6875 3.0625 C-6.68136719 2.86785156 -7.67523438 2.67320313 -8.69921875 2.47265625 C-9.45847656 2.31667969 -10.21773438 2.16070312 -11 2 C-11 1.67 -11 1.34 -11 1 C-10.28972656 1.01160156 -9.57945313 1.02320313 -8.84765625 1.03515625 C-7.92855469 1.04417969 -7.00945312 1.05320313 -6.0625 1.0625 C-4.68771484 1.07990234 -4.68771484 1.07990234 -3.28515625 1.09765625 C-1.03406673 1.25949049 -1.03406673 1.25949049 0 0 Z " fill="#439E96" transform="translate(128,44)"/>
<path d="M0 0 C3.68754757 0.49831724 5.60490662 1.10067643 8 4 C7.01 4 6.02 4 5 4 C4.67 4.66 4.34 5.32 4 6 C3.34 5.67 2.68 5.34 2 5 C2 4.34 2 3.68 2 3 C1.34 2.67 0.68 2.34 0 2 C0 1.34 0 0.68 0 0 Z " fill="#42A4B8" transform="translate(113,33)"/>
<path d="M0 0 C0.99 0 1.98 0 3 0 C3.33 0.99 3.66 1.98 4 3 C3.67 3.66 3.34 4.32 3 5 C1.68 5 0.36 5 -1 5 C-0.67 3.35 -0.34 1.7 0 0 Z " fill="#2FAAC3" transform="translate(130,190)"/>
<path d="M0 0 C1.9375 0.5625 1.9375 0.5625 4 2 C4.75 5.625 4.75 5.625 5 9 C4.34 8.67 3.68 8.34 3 8 C3 7.01 3 6.02 3 5 C2.34 5 1.68 5 1 5 C1 4.34 1 3.68 1 3 C0.34 2.67 -0.32 2.34 -1 2 C-0.67 1.34 -0.34 0.68 0 0 Z " fill="#2BAEC6" transform="translate(101,177)"/>
<path d="M0 0 C1.98 0 3.96 0 6 0 C6.33 1.32 6.66 2.64 7 4 C6.01 4 5.02 4 4 4 C4 3.01 4 2.02 4 1 C2.35 1.66 0.7 2.32 -1 3 C-0.67 2.01 -0.34 1.02 0 0 Z " fill="#A3964B" transform="translate(107,156)"/>
<path d="M0 0 C0 1.65 0 3.3 0 5 C-1.65 5 -3.3 5 -5 5 C-5 4.01 -5 3.02 -5 2 C-2 0 -2 0 0 0 Z " fill="#34B1CD" transform="translate(129,132)"/>
<path d="M0 0 C0.99 0.33 1.98 0.66 3 1 C3.33 1.99 3.66 2.98 4 4 C1.3333581 5.33332095 -0.16680303 4.67102033 -3 4 C-2.67 3.01 -2.34 2.02 -2 1 C-1.34 0.67 -0.68 0.34 0 0 Z " fill="#DDBD49" transform="translate(99,110)"/>
<path d="M0 0 C0.66 0 1.32 0 2 0 C1.67 2.97 1.34 5.94 1 9 C-1.15341979 6.84658021 -1.64111965 5.96076291 -2 3 C-1.34 2.01 -0.68 1.02 0 0 Z " fill="#B7C688" transform="translate(158,99)"/>
<path d="M0 0 C1.32 0.66 2.64 1.32 4 2 C3.67 3.32 3.34 4.64 3 6 C1.68 5.67 0.36 5.34 -1 5 C-0.67 3.35 -0.34 1.7 0 0 Z " fill="#BBA332" transform="translate(114,23)"/>
<path d="M0 0 C0.33 0.99 0.66 1.98 1 3 C-2.08809695 4.76462683 -3.23312136 5 -7 5 C-7 4.34 -7 3.68 -7 3 C-4.69 2.01 -2.38 1.02 0 0 Z " fill="#32A4B1" transform="translate(169,185)"/>
<path d="M0 0 C2.475 0.99 2.475 0.99 5 2 C3.35 3.98 1.7 5.96 0 8 C0 5 0 5 1 2 C0.34 1.67 -0.32 1.34 -1 1 C-0.67 0.67 -0.34 0.34 0 0 Z " fill="#DBBC5B" transform="translate(117,120)"/>
<path d="M0 0 C2.97 0.33 5.94 0.66 9 1 C5.5647952 3.29013653 4.014669 3.17842973 0 3 C0 2.01 0 1.02 0 0 Z " fill="#D6B764" transform="translate(93,108)"/>
<path d="M0 0 C0 3.73120489 -1.18031476 5.78055689 -3 9 C-3.99 9.495 -3.99 9.495 -5 10 C-3.14285714 2.42857143 -3.14285714 2.42857143 0 0 Z " fill="#DFB951" transform="translate(99,70)"/>
<path d="M0 0 C2.0625 0.4375 2.0625 0.4375 4 1 C2.35 2.65 0.7 4.3 -1 6 C-1.66 5.67 -2.32 5.34 -3 5 C-1.125 1.125 -1.125 1.125 0 0 Z " fill="#39A4B6" transform="translate(118,136)"/>
<path d="M0 0 C2.79872437 2.52788007 4.45773019 4.20411134 5 8 C2.525 7.01 2.525 7.01 0 6 C0 4.02 0 2.04 0 0 Z " fill="#62A7A3" transform="translate(67,108)"/>
<path d="M0 0 C0.33 0.66 0.66 1.32 1 2 C-1.3125 4.5 -1.3125 4.5 -4 7 C-4.99 7 -5.98 7 -7 7 C-4.69 4.69 -2.38 2.38 0 0 Z " fill="#41A2B5" transform="translate(105,39)"/>
<path d="M0 0 C1.9375 0.8125 1.9375 0.8125 4 2 C4.33 2.99 4.66 3.98 5 5 C3.33333333 5 1.66666667 5 0 5 C-0.5625 3.0625 -0.5625 3.0625 -1 1 C-0.67 0.67 -0.34 0.34 0 0 Z " fill="#2EB8D1" transform="translate(57,82)"/>
<path d="M0 0 C0.66 0.66 1.32 1.32 2 2 C0.7260411 4.03833424 -0.61061923 6.03852126 -2 8 C-2.66 8 -3.32 8 -4 8 C-2.87548273 5.0280615 -1.77706209 2.66559313 0 0 Z " fill="#E7C543" transform="translate(110,75)"/>
<path d="M0 0 C1.65 0 3.3 0 5 0 C5.33 1.65 5.66 3.3 6 5 C4 4 4 4 1 2 C0.01 2.495 0.01 2.495 -1 3 C-0.67 2.01 -0.34 1.02 0 0 Z " fill="#AA9C38" transform="translate(113,22)"/>
</svg>
